# xmcd CD database file
#
# Track frame offsets:
#	150
#	18478
#	42493
#	58659
#	75622
#	89877
#	106804
#	123099
#	137464
#	155263
#	173148
#	185220
#
# Disc length: 2651 seconds
#
# Revision: 0
# Processed by: cddbd v1.4PL0 Copyright (c) Steve Scherf et al.
# Submitted via: CDex 1.50
#
DISCID=9c0a590c
DTITLE=Lazy Lester - all over you
DYEAR=1900
DGENRE=Blues
TTITLE0=I need money
TTITLE1=The sun is shining
TTITLE2=Strange things happen
TTITLE3=If you think I've lost you
TTITLE4=I'm a lover not a fighter
TTITLE5=Irene
TTITLE6=You're gonna ruin me baby
TTITLE7=Nothing but the devil
TTITLE8=I made up my mind
TTITLE9=Hello mary lee
TTITLE10=Tell me pretty baby
TTITLE11=My home is a prison
EXTD=
EXTT0=
EXTT1=
EXTT2=
EXTT3=
EXTT4=
EXTT5=
EXTT6=
EXTT7=
EXTT8=
EXTT9=
EXTT10=
EXTT11=
PLAYORDER=
